<?xml version="1.0" encoding="UTF-8" standalone="no"?>
<svg
   xmlns:dc="http://purl.org/dc/elements/1.1/"
   xmlns:cc="http://creativecommons.org/ns#"
   xmlns:rdf="http://www.w3.org/1999/02/22-rdf-syntax-ns#"
   xmlns:svg="http://www.w3.org/2000/svg"
   xmlns="http://www.w3.org/2000/svg"
   viewBox="0 0 512.00001 511.99999"
   height="512"
   width="512"
   xml:space="preserve"
   id="svg4504"
   version="1.1"><metadata
     id="metadata4510"><rdf:RDF><cc:Work
         rdf:about=""><dc:format>image/svg+xml</dc:format><dc:type
           rdf:resource="http://purl.org/dc/dcmitype/StillImage" /><dc:title></dc:title></cc:Work></rdf:RDF></metadata><defs
     id="defs4508"><clipPath
       id="clipPath4520"
       clipPathUnits="userSpaceOnUse"><path
         id="path4518"
         d="M 0,5896.063 H 1842.52 V 0 H 0 Z" /></clipPath></defs><g
     transform="translate(-35.355739,142.32531)"
     id="layer1" /><g
     style="display:inline"
     transform="matrix(1.3333333,0,0,-1.3333333,-1075.0464,4156.0586)"
     id="g4512"><g
       style="fill:#ffffff"
       transform="matrix(1.4258663,0,0,1.4258663,851.48975,2810.0679)"
       id="g4522"><path
         id="path4524"
         style="fill:#ffffff;fill-opacity:1;fill-rule:nonzero;stroke:none"
         d="M 0,0 C -1.789,1.431 -2.146,-2.011 -2.016,-3.035 -0.648,-2.979 1.674,-1.339 0,0 M 14.58,6.939 C 12.631,4.991 11.064,4.377 10.791,1.242 c -0.218,-2.482 2.334,-4.43 4.794,-3.754 2.975,0.818 4.826,2.613 4.517,5.644 -0.248,2.432 -3.398,3.659 -5.522,3.807 M 0.767,9.243 C -0.349,7.642 -1.767,7.097 -1.076,4.939 -0.848,4.228 0.523,4.025 1.151,4.446 4.56,4.392 3.268,8.963 0.767,9.243 m -7.961,0 c -1.401,-1.815 -3.137,-1.278 -2.53,-4.082 0.351,-1.626 0.86,-2.802 2.716,-2.585 4.045,0.474 4.26,6.533 -0.186,6.667 m 173.143,0.862 c -1.157,-1.687 -4.128,-5.198 0.48,-5.084 0.924,0.962 1.606,2.573 2.59,3.359 -0.391,0.852 -2.173,1.734 -3.07,1.725 m 6.522,1.918 c -0.618,-0.816 -1.344,-1.877 0.223,-2.151 1.928,-0.336 1.717,1.989 -0.223,2.151 m 9.402,4.702 c -1.336,-1.329 -0.832,-3.118 -0.003,-5.108 0.474,-1.149 2.679,-2.675 3.872,-1.904 3.965,2.57 -0.657,6.863 -3.869,7.012 M 1.038,11.814 c 2.37,0.67 2.771,3.149 0.975,4.911 -0.702,0.46 -2.171,0.305 -2.973,0.289 -0.698,-1.994 -2.89,-6.581 1.998,-5.2 m 174.12,6.349 c -1.342,-2.098 -1.742,-3.601 1.438,-3.07 0.345,1.514 0.786,3.155 -1.438,3.07 m 7.77,0.961 c 1.473,0.038 1.567,3.104 -0.287,3.164 -1.01,-0.987 -1.559,-0.694 -1.535,-2.304 0.527,-0.518 0.781,-1.552 1.822,-0.86 m -131.129,6.81 c 1.18,-1.42 2.312,-2.149 3.926,-0.737 1.287,1.126 0.59,1.973 1.254,3.135 -0.119,1.876 -1.94,1.468 -3.263,1.63 -1.77,-1.712 -1.917,-1.29 -1.917,-4.028 m 125.374,4.7 c -5.439,0.268 0.411,-6.94 0,0 m -24.462,2.973 c 0.437,1.168 -0.405,1.739 -1.438,1.729 -1.301,-1.297 -0.251,-3.135 1.438,-1.729 m 4.508,3.071 c 2.765,-1.159 2.599,1.416 2.493,3.067 -2.013,0.11 -3.784,-0.862 -2.493,-3.067 M 57.163,36.711 c 3.382,0.847 1.587,4.746 -1.24,4.859 -0.786,-1.174 -2.469,-1.816 -1.9,-3.568 0.429,-1.311 1.961,-1.584 3.14,-1.291 m 98.138,4.762 c 0.35,4.997 -4.94,-1.035 0,0 M 49.688,46.94 c -0.466,-0.461 -2.781,-2.391 -1.28,-3.55 0.94,-0.728 1.597,-0.579 2.541,0.139 1.819,1.39 0.848,3.411 -1.261,3.411 m 129.165,11.349 c 1.404,0.561 0.5,2.129 -0.721,2.082 -0.914,-0.766 -1.214,-2.854 0.721,-2.082 m 9.231,2.422 c 1.345,1.143 1.966,3.783 -0.457,3.783 -0.815,-1.063 -1.674,-0.98 -1.758,-2.546 -0.065,-1.219 1.183,-2.111 2.215,-1.237 m -11.488,5.703 c -1.531,-1.152 -2.023,-2.125 -0.19,-3.356 2.378,-0.053 2.913,3.367 0.19,3.356 m 5.66,0.385 c 3.811,-0.118 4.56,5.029 0.385,4.891 -0.951,-0.936 -2.132,-1.865 -1.63,-3.29 -0.076,0.22 1.245,-1.972 1.245,-1.601 m -6.139,12.085 c -0.907,-1.116 -3.159,-1.343 -2.358,-3.468 0.642,-1.697 2.764,-1.492 4.065,-0.905 3.174,1.424 0.909,4.395 -1.707,4.373 M 138.591,3.744 c -2.275,-3.387 -3.702,-4.91 -7.211,-1.729 -3.047,2.765 -6.191,5.317 -8.865,8.474 -2.291,2.706 -4.551,7.582 -7.708,9.236 -1.424,0.745 -3.016,1.384 -4.532,0.572 -1.267,-0.68 -1.993,-1.846 -3.416,-1.846 0.516,2.627 2.712,4.809 2.974,7.673 0.647,2.569 0.925,5.363 3.933,5.758 0.048,5.112 -3.053,6.517 -7.386,7.96 0.26,3.121 -0.992,6.797 -1.92,9.785 -2.326,7.499 -6.326,16.644 -0.873,23.719 1.706,2.216 7.57,3.636 10.273,3.907 2.667,0.667 8.704,1.914 11.224,0.288 2.249,-3.123 1.259,-9.529 1.296,-13.094 0.037,-3.748 0.143,-7.498 0.143,-11.222 0,-8.704 2.574,-18.213 4.701,-26.65 0.616,-2.448 0.582,-5.015 1.513,-7.372 0.651,-1.639 1.456,-3.213 2.036,-4.877 0.926,-2.662 1.469,-4.81 2.974,-7.291 0.499,-0.818 1.418,-2.437 0.844,-3.291 M 110.984,90.97 c 0.42,1.253 0.766,2.515 1.386,3.686 1.269,2.406 2.221,4.854 3.367,7.328 1.28,2.772 2.037,5.696 3.209,8.46 0.869,2.055 2.47,3.83 3.165,6.044 1.924,-0.453 1.014,-8.486 1.067,-9.844 0.141,-3.564 0.3,-7.106 0.581,-10.659 0.113,-1.461 0.253,-3.733 -0.208,-5.11 -1.598,-0.003 -3.014,0.484 -4.603,0.131 -3.304,-0.735 -6.003,-3.229 -9.498,-3.297 -0.177,1.576 0.86,2.059 1.534,3.261 M 93.075,12.816 C 90.89,11.145 88.833,9.38 86.619,7.707 84.963,6.459 83.033,3.818 80.767,3.775 c 0.435,5.419 3.765,9.907 5.954,14.538 0.994,2.097 -0.71,6.775 1.776,7.181 2.264,0.367 4.52,1.435 6.813,1.488 6.161,0.143 0.061,-12.41 -2.235,-14.166 m 9.706,-21.334 c 2.059,-2.262 2.563,-5.904 1.254,-8.658 -1.538,-3.222 -5.867,-3.917 -8.794,-5.208 -2.978,-1.315 -7.684,-2.955 -10.876,-3.292 -2.659,-0.279 -7.804,-2.465 -8.585,1.44 -0.831,2.478 0.358,6.844 1.779,9.015 0.789,1.207 1.586,4.548 1.579,6.044 1.735,0.402 3.4,0.843 5.179,0.961 1.696,0.398 3.433,0.575 5.143,0.898 1.126,0.209 3.318,-0.217 4.257,0.349 2.991,-0.066 6.821,0.913 9.064,-1.549 M 72.902,103.539 c -1.223,-1.382 -1.991,-3.083 -4.125,-3.07 -0.226,6.679 1.823,13.469 1.917,20.239 2.106,-0.058 4.971,-0.289 6.982,-0.87 1.458,-0.42 3.966,0.771 5.394,1.158 3.588,0.45 8.473,1.477 7.676,-3.695 -0.76,-4.939 -8.1,-5.001 -11.504,-7.609 -2.36,-1.809 -4.199,-4.116 -6.34,-6.153 m 151.723,-24.82 c -1.304,4.674 -5.167,8.076 -8.536,11.365 -4.038,3.945 -8.357,7.066 -13.435,9.676 -5.647,2.902 -11.192,4.539 -17.183,6.411 -4.554,1.424 -8.831,3.256 -13.478,4.177 -2.08,0.868 -3.425,2.55 -5.367,3.443 -2.153,0.984 -4.498,2.032 -6.27,3.636 -2.901,2.626 -2.367,12.27 -1.026,15.561 0.72,2.558 1.406,4.295 3.125,6.33 0.561,0.665 1.197,1.463 1.958,1.918 0.766,0.457 1.516,-0.382 2.306,0.176 2.186,1.543 5.235,2.016 7.383,3.566 1.572,2.225 3.913,3.395 6.1,5.018 3.641,2.705 10.175,7.381 15.005,5.917 2.429,-0.737 5.287,-2.972 3.691,-5.516 -1.253,-2.002 -3.237,-2.071 -4.796,-3.549 -1.789,-1.702 -1.142,-3.805 0.146,-5.516 0.75,-0.994 2.318,-1.406 1.39,-2.686 -0.759,-1.047 -0.966,-1.392 -2.25,-1.49 -1.918,-0.147 -2.666,0.133 -4.418,0.723 0.118,0.91 0.878,1.562 1.033,2.471 0.358,2.039 -1.757,3.946 -3.639,4.048 -3.575,0.196 -8.988,-5.195 -4.869,-8.22 1.911,-1.405 4.008,-3.788 6.42,-4.055 2.053,-0.522 4.257,-0.846 6.362,-1.133 4.391,-0.605 8.74,4.001 10.907,7.449 2.97,4.73 3.876,10.234 3.473,15.903 -0.296,4.154 -0.453,10.802 -4.722,12.603 -2.665,1.128 -5.928,1.759 -8.783,1.068 -2.428,-0.583 -3.769,-2.871 -6.109,-3.585 -4.834,-1.469 -8.858,-4.407 -13.899,-5.419 -4.477,-0.898 -10.88,-2.816 -14.34,-5.95 -2.899,-2.625 -10.838,-4.251 -9.434,-8.944 -2.051,-1.969 -3.419,-5.351 -4.276,-7.969 -0.784,-2.386 -1.047,-4.914 -1.812,-7.187 -1.511,-4.471 -0.581,-9.57 1.265,-13.768 2.243,-5.103 7.789,-7.076 11.633,-10.52 2.073,-1.859 4.324,-2.781 6.777,-4.021 0.937,-0.474 1.773,-1.545 2.717,-1.908 1.284,-0.494 2.626,-0.421 3.947,-0.961 5.906,-2.417 11.542,-5.523 17.444,-7.959 4.96,-0.709 9.095,-2.834 12.749,-6.363 3.256,-3.146 4.877,-10.075 2.961,-14.221 -0.968,-2.094 -2.552,-3.308 -4.281,-4.758 -1.936,-1.626 -3.088,-3.647 -5.193,-5.164 -4.633,-3.336 -9.445,-6.885 -15.442,-6.813 -5.153,0 -9.434,3.573 -12.882,7.119 -2.339,2.407 -4.347,4.418 -5.764,7.5 -1.182,2.575 -3.428,4.103 -4.681,6.553 -2.525,4.926 -7.916,8.526 -12.359,11.638 -3.538,2.48 -4.739,2.295 -4.604,6.906 -0.527,2.416 0.291,4.664 0.098,7.093 -0.214,2.711 0.417,5.935 -0.526,8.498 -0.98,2.661 -2.421,4.872 -1.914,7.828 0.286,1.671 0.365,8.37 1.766,8.961 1.166,0.492 0.193,2.653 0.193,3.881 -0.594,2.692 -0.606,4.766 -3.06,6.526 -2.044,1.466 -4.033,1.003 -5.01,3.662 -0.961,2.612 -1.107,5.725 -2.742,8.012 -1.421,1.984 -3.043,2.992 -4.07,5.334 -1.419,3.236 -5.903,8.962 -9.427,4.196 -5.774,-7.808 1.513,-18.567 -0.718,-27.203 -1.458,-5.655 -5.684,-10.944 -6.053,-16.835 -1.675,-5.221 -4.864,-10.297 -7.1,-15.35 -2.211,-4.994 -4.016,-10.154 -5.467,-15.347 0,-1.916 -1.438,-3.496 -1.438,-5.179 -1.918,0.02 -2.422,2.137 -3.556,3.583 -3.141,4.017 -7.936,9.169 -12.24,11.953 -1.592,1.031 -5.277,2.247 -3.122,4.279 1.475,1.387 3.215,2.846 4.838,4.041 3.141,2.316 9.922,2.638 13.807,2.481 3.172,-0.129 6.409,3.426 7.65,6.455 1.035,2.526 1.154,5.685 3.502,7.285 1.945,1.325 2.666,2.947 3.716,4.988 2.232,4.328 -4.855,7.645 -8.003,8.48 -2.959,0.788 -6.02,1.6 -9.056,2.018 -1.599,0.224 -4.217,1.118 -5.786,0.65 -2.165,-0.651 -7.512,-2.913 -7.387,0.764 -6.654,0.836 -13.296,0.739 -19.921,1.77 -4.557,0.709 -9.97,-3.472 -7.704,3.892 0,6.128 6.356,7.821 11.113,10.086 3.822,1.823 11.313,7.5 15.458,6.413 -0.211,-2.047 -6.935,-2.446 -4.892,-5.372 0.987,-3.521 8.791,-0.052 10.414,0.741 2.818,1.377 6.905,5.114 4.596,8.476 -2.885,4.195 2.011,5.485 1.001,9.843 -1.847,7.976 -16.479,-0.268 -19.944,-1.792 -8.571,-3.773 -16.561,-8.903 -25.132,-12.662 -3.866,-1.698 -7.651,-3.611 -11.333,-5.67 -3.879,-2.17 -8.27,-3.025 -12.18,-5.299 -4.112,-2.388 -8.592,-4.91 -13,-6.695 -3.411,-1.385 -4.097,-3.348 -3.702,-6.948 0.46,-4.179 4.095,-6.564 7.507,-8.362 1.9,-1.003 8.711,-4.283 7,0.934 -0.591,1.805 -1.521,3.309 -1.535,5.275 1.572,1.517 2.808,2.057 4.832,3.044 1.191,0.58 10.779,5.123 11.03,3.946 0.483,-2.275 1.13,-4.168 1.007,-6.516 -0.132,-2.514 -0.753,-4.956 -0.753,-7.477 -1.129,-5.161 -1.588,-10.67 -1.73,-15.947 -0.088,-3.277 0.482,-6.484 0.482,-9.76 0,-2.839 1.169,-6.074 0.575,-8.825 0,-5.93 -1.117,-11.696 -1.754,-17.584 -0.39,-3.615 -0.72,-7.255 -1.507,-10.81 0,-2.866 -0.272,-6.518 -1.343,-9.21 C 26.057,46.269 19.25,39.139 16.313,41.146 14.578,42.334 13.706,45.375 11.51,44.449 9.544,43.623 7.659,43.73 7.385,41.14 c -0.592,-5.626 4.997,-5.374 7.386,-8.586 1.272,-1.712 4.46,-3.481 6.522,-2.206 1.72,1.06 2.716,3.583 5.107,3.213 5.148,-0.793 7.651,5.419 9.378,9.449 0.812,1.895 0.609,4.158 1.311,6.138 0.481,1.357 1.088,2.581 1.088,4.028 0,2.452 0.926,4.849 1.534,7.195 1.387,5.342 1.663,11.002 2.879,16.405 0,11.357 3.306,22.01 3.893,33.304 0.236,4.547 1.287,8.801 1.287,13.315 0.797,1.992 2.666,-1.295 3.644,-1.727 2.405,-1.056 5.234,-0.315 7.674,0.193 1.321,-4.06 -0.287,-9.972 -0.287,-14.198 0,-4.049 -0.339,-7.868 -0.863,-11.8 -3.871,-1.261 -9.491,0.527 -11.343,-4.394 -0.833,-2.211 0.664,-11.237 -2.471,-10.951 0.003,-2.463 1.699,-5.331 4.362,-3.725 1.705,1.028 2.4,3.05 3.984,4.202 0.867,0.633 4.89,2.847 5.322,0.908 0.425,-1.905 -0.002,-4.345 -0.293,-6.243 -0.873,-5.658 -1.375,-11.393 -2.493,-17.038 -0.524,-2.653 -3.042,-12.048 0.725,-13.216 0.998,-0.635 3.545,0.487 4.316,0.961 0.052,2.865 1.16,5.443 1.92,8.153 0.44,4.729 0.925,10.323 2.921,14.666 1.077,2.349 1.782,4.521 2.092,7.102 0.317,2.647 1.279,4.606 4.045,2.608 2.218,-1.601 5.004,-2.501 7.318,-4.089 1.816,-1.246 3.428,-3.824 5.782,-3.98 -0.254,-1.393 1.78,-2.747 3.358,-2.781 1.042,-1.229 -1.935,-4.046 -0.874,-5.739 1.355,-2.154 -0.909,-5.073 -2.108,-7.015 -1.255,-2.03 -1.59,-4.386 -2.776,-6.451 -1.164,-2.025 -0.619,-5.272 1.92,-5.831 2.068,-0.455 5.415,3.473 6.449,4.899 1.689,2.334 1.818,5.41 3.154,8 1.064,2.07 1.755,3.446 2.878,0.684 0.681,-1.677 6.268,-17.466 5.293,-17.285 -4.651,0.863 -9.054,0.404 -13.361,-1.478 -5.797,-2.546 -10.505,-7.492 -16.978,-8.508 -2.82,-0.44 -7.585,-0.99 -5.568,-5.078 0.764,-1.547 3.036,-3.666 4.943,-3.135 5.666,1.579 5.929,-3.736 4.651,-7.988 C 73.448,7.603 73.973,0.52 70.471,-4.235 c -1.37,-1.862 -4.998,-2.564 -7.161,-3.884 -2.356,-1.436 -4.853,-2.378 -7.411,-3.397 -1.98,-0.791 -3.397,-1.138 -4.963,-2.453 0.014,-2.148 1.923,-2.758 3.446,-3.717 2.262,-1.423 3.723,1.952 5.723,2.686 2.016,0.744 3.625,1.788 5.733,1.771 4.857,-0.04 -1.096,-8.83 -2.54,-10.614 -1.844,-2.28 -4.338,-5.6 -7.019,-6.864 -2.298,-1.08 -4.199,-3.064 -6.557,-3.919 -2.537,-0.923 -4.856,-2.468 -7.461,-3.187 -2.857,-0.787 -0.781,-2.533 0.671,-3.517 4.524,-3.064 9.56,-0.178 14.238,1.269 3.476,-0.173 10.545,-0.199 13.53,1.729 0.826,0.535 2.247,1.334 2.873,2.107 1.047,-0.117 2.062,-0.409 3.12,-0.455 2.692,-0.102 5.49,0.68 8.039,1.429 4.981,1.457 10.021,1.11 14.962,2.988 2.946,1.12 5.91,1.566 8.603,3.234 2.556,1.085 3.956,2.478 6.075,4.283 4.007,3.415 5.725,6.748 5.725,12.119 0,6.405 -3.124,9.004 -7.8,12.637 -1.707,1.325 -4.374,1.191 -6.397,1.655 -3.26,0.064 -6.382,0.785 -9.594,0.864 0.559,1.563 3.546,2.71 4.772,3.711 1.388,1.136 4.226,2.854 4.822,4.634 1.078,-0.388 1.925,-2.537 2.567,-3.417 0.874,-1.209 1.646,-1.538 2.804,-2.337 2.188,-1.509 4.299,-4.208 6.141,-6.138 2.791,-2.112 11.217,-9.351 9.783,-12.856 -1.226,-3.004 -2.26,-5.96 -3.795,-8.866 -1.518,-2.869 -3.721,-4.481 -5.606,-6.987 -4.16,-5.535 -9.565,-10.036 -15.808,-13.076 -3.084,-1.502 -6.128,-2.27 -9.352,-3.285 -1.721,-0.54 -3.257,0.07 -4.96,-0.303 -4.981,-1.098 -9.957,1.715 -13.508,-3.369 -4.609,-6.595 7.009,-3.537 9.671,-3.636 2.389,0.523 5.241,0.375 7.675,0.29 1.756,0.383 2.951,-0.539 4.507,0.238 5.309,2.657 12.004,1.981 17.359,4.956 3.679,2.047 8.985,4.971 11.149,8.682 2.496,4.284 4.44,8.905 6.845,13.279 2.528,4.599 5.038,9.234 7.814,13.709 1.724,2.782 3.986,5.42 5.449,8.337 0.995,1.978 1.363,4.515 3.088,6.051 3.988,3.555 7.181,9.386 12.677,10.763 4.422,1.109 11.082,1.42 11.272,7.523 0.138,4.389 -0.64,8.379 -0.64,12.699 -2.036,1.697 -4.596,1.984 -6.463,-0.277 -1.582,-1.918 -3.679,-3.897 -4.909,-6.038 -2.246,-3.911 -6.185,-7.986 -9.592,-10.927 -1.96,-1.695 -3.833,-3.206 -5.798,-4.726 -1.975,0.387 -2.82,4.205 -3.286,5.726 -1.712,5.572 -2.854,11.099 -2.854,16.93 0,3.654 0.44,7.341 0.398,10.96 -0.026,2.337 -0.322,5.332 0.179,7.633 0.494,2.287 0.766,5.319 0.766,7.673 0,1.999 0.801,4.175 0.384,6.14 -0.431,2.03 0.268,5.137 0.475,7.207 0.296,2.969 3.548,-1.356 4.034,-2.028 1.411,-1.951 3.334,-4.861 4.127,-7.097 0.906,-2.553 2.648,-4.528 3.544,-7.078 0.918,-2.616 3.29,-4.472 4.415,-7.024 0.975,-2.213 2.618,-3.602 4.028,-5.468 1.395,-1.845 3.658,-3.461 5.379,-5.074 1.864,-1.747 2.867,-3.439 5.413,-4.327 11.658,-4.068 20.127,6.121 30.55,8.442 1.371,0.867 2.061,2.421 3.09,3.609 0.994,1.144 2.415,1.934 3.626,2.818 1.77,1.291 3.016,3.194 4.287,4.945 1.64,2.264 3.753,4.048 5.178,6.483 1.224,2.093 0.279,4.742 1.375,6.51 0.084,1.025 1.659,1.744 2.392,2.202 0.938,0.585 0.992,1.324 1.541,2.21 1.286,2.08 1.999,3.714 1.314,6.164 M 1.083,130.186 c -0.441,1.998 0.051,4.975 1.328,6.614 0.974,1.243 3.708,2.317 4.121,3.662 1.64,5.34 0.793,10.946 3.334,16.179 2.228,4.586 4.486,8.784 7.209,13.088 2.566,4.06 6.025,8.87 5.735,13.925 -0.3,5.201 -3.057,10.053 -4.966,14.775 -4.262,10.539 -14.033,16.612 -25.136,16.862 -1.349,-0.926 -2.371,-0.736 -3.356,-2.303 -0.895,-1.419 -1.574,-3.279 -1.686,-4.954 -0.139,-2.09 0.913,-4.385 3.286,-4.316 1.511,0.042 2.374,1.455 3.772,1.789 1.305,-1.539 -7.073,-5.507 -2.441,-6.112 1.386,-0.184 3.382,-0.258 4.775,-0.154 2.688,0.2 2.353,-0.385 0.874,-2.731 -1.883,-2.989 -3.497,-6.736 -6.087,-9.181 -3.122,-2.948 -5.023,-6.593 -5.617,-10.771 -1.188,-8.36 4.935,-15.011 3.935,-23.412 -0.92,-7.732 -0.14,-15.519 -0.14,-23.326 -3.237,-14.896 0.956,-30.435 -1.114,-45.416 -0.563,-4.076 -0.235,-8.578 0.149,-12.644 0.184,-1.95 0.559,-4.008 0.494,-5.968 -0.04,-1.228 -0.521,-2.676 -0.316,-3.894 1.245,-7.343 0.019,-15.046 0.019,-22.464 0,-5.948 -0.285,-11.829 -0.364,-17.76 -0.018,-1.395 0.012,-2.795 0.174,-4.184 1.386,-0.987 0.917,-1.879 2.016,-2.619 1.209,-0.814 3.753,-1.064 4.71,0.301 1.17,1.671 0.872,4.542 1.026,6.473 0.198,2.434 0.699,4.875 0.996,7.303 0.741,6.05 1.322,11.968 1.26,18.09 -0.061,5.807 1.592,11.806 0.889,17.53 -0.672,5.49 0.431,11.95 1.205,17.394 1.612,11.339 2.052,23.099 2.819,34.509 0.177,2.628 0.958,5.696 -0.226,8.197 -0.879,1.852 -2.224,3.477 -2.677,5.518" /></g></g></svg>