<?xml version="1.0" standalone="no"?>
<!DOCTYPE svg PUBLIC "-//W3C//DTD SVG 20010904//EN"
 "http://www.w3.org/TR/2001/REC-SVG-20010904/DTD/svg10.dtd">
<svg version="1.0" xmlns="http://www.w3.org/2000/svg"
 width="700.000000pt" height="700.000000pt" viewBox="0 0 700.000000 700.000000"
 preserveAspectRatio="xMidYMid meet">
<metadata>
Created by potrace 1.11, written by Peter Selinger 2001-2013
</metadata>
<g transform="translate(0.000000,700.000000) scale(0.100000,-0.100000)"
fill="#000000" stroke="none">
<path d="M597 6979 c-71 -38 -114 -182 -73 -244 24 -37 62 -42 113 -15 24 13
46 20 50 17 3 -4 -17 -32 -46 -62 -29 -31 -51 -61 -48 -68 5 -15 63 -26 145
-26 38 -1 62 -5 62 -12 0 -25 -137 -239 -198 -308 -80 -92 -119 -173 -131
-270 -12 -93 -3 -151 51 -316 l42 -130 -2 -414 c-1 -227 -4 -417 -7 -421 -3
-5 -10 -61 -15 -127 -7 -82 -7 -216 2 -443 9 -265 9 -358 -2 -502 -11 -142
-11 -209 -1 -340 16 -218 18 -548 7 -1034 l-9 -401 28 -37 c43 -56 121 -67
151 -21 8 13 18 67 24 126 5 57 16 158 24 224 23 175 36 345 36 465 0 58 5
139 11 180 6 41 10 167 10 280 -1 130 4 243 13 310 31 221 56 476 77 785 30
442 31 423 -19 524 -68 137 -55 229 44 301 51 38 53 42 68 112 8 40 20 116 27
168 6 52 21 119 32 149 25 69 121 248 230 429 47 78 93 166 103 194 23 70 21
167 -6 252 -34 108 -126 313 -170 382 -113 173 -303 283 -530 308 -44 4 -63 1
-93 -15z"/>
<path d="M2895 5871 c-99 -27 -205 -76 -768 -359 -273 -138 -549 -272 -612
-298 -64 -26 -173 -78 -243 -116 -70 -39 -173 -91 -229 -118 -116 -55 -133
-76 -133 -162 1 -105 66 -185 208 -255 93 -46 165 -52 170 -14 2 13 -4 44 -14
69 -9 25 -20 60 -24 78 -7 30 -4 35 36 63 48 35 238 123 315 145 l50 15 12
-27 c18 -40 13 -297 -7 -401 -31 -158 -39 -351 -25 -542 20 -252 15 -406 -20
-696 -17 -139 -36 -276 -41 -304 -6 -29 -10 -73 -10 -100 0 -62 -18 -145 -40
-189 -19 -37 -127 -146 -170 -172 -59 -35 -77 -32 -134 22 -59 55 -74 59 -139
31 -48 -21 -57 -35 -57 -86 0 -56 17 -83 77 -122 32 -21 82 -59 111 -85 59
-52 115 -74 155 -59 14 5 28 15 32 21 4 6 25 25 47 41 31 22 52 29 87 29 54 0
97 23 134 72 42 55 97 180 107 245 6 33 16 78 24 100 7 21 17 63 21 93 4 30
18 98 31 150 31 126 81 440 89 565 3 55 21 200 40 322 19 122 39 270 45 330 6
59 18 165 26 235 8 70 14 147 14 171 0 65 19 76 64 37 49 -43 92 -53 167 -40
76 14 79 11 79 -85 0 -102 -34 -572 -42 -581 -2 -2 -46 -8 -97 -14 -174 -20
-196 -42 -203 -213 -6 -113 -20 -167 -45 -167 -17 0 -8 -45 16 -80 34 -48 65
-39 140 38 69 70 117 97 163 90 20 -3 23 -10 26 -53 3 -50 -56 -486 -83 -614
-34 -162 -28 -268 16 -292 47 -25 129 13 129 60 0 15 11 63 24 107 13 43 26
113 30 154 11 108 30 193 69 301 19 53 40 122 46 155 14 69 28 101 48 109 21
8 248 -119 306 -171 27 -24 60 -47 72 -50 12 -3 28 -17 34 -30 6 -14 27 -32
46 -40 40 -16 43 -32 19 -90 -13 -30 -14 -45 -5 -74 13 -44 4 -78 -37 -146
-47 -75 -102 -219 -102 -265 0 -29 7 -47 26 -65 32 -33 61 -27 123 24 56 46
94 106 126 201 29 89 59 141 79 141 8 0 24 -24 36 -57 42 -111 130 -383 130
-402 0 -19 -7 -20 -99 -20 -55 0 -112 -3 -128 -7 -68 -15 -169 -60 -250 -111
-137 -86 -231 -130 -314 -147 -42 -9 -85 -19 -95 -22 -60 -22 -72 -81 -28
-134 39 -46 75 -61 129 -53 78 10 115 -25 115 -109 0 -42 -36 -246 -71 -398
-10 -46 -31 -105 -47 -130 -24 -40 -41 -52 -142 -102 -63 -31 -167 -77 -230
-103 -132 -53 -158 -72 -141 -104 15 -27 80 -71 106 -71 11 0 44 18 73 39 55
42 146 81 187 81 44 0 55 -10 55 -50 0 -52 -57 -156 -144 -266 -57 -71 -86
-98 -170 -152 -96 -62 -225 -127 -328 -167 -54 -20 -61 -40 -25 -73 63 -60
160 -67 297 -22 66 21 111 30 160 30 147 0 282 32 333 78 15 13 40 17 115 18
66 1 121 8 172 22 41 12 134 31 205 42 149 23 360 86 455 136 92 48 222 170
257 242 26 52 28 66 28 172 0 137 -14 172 -104 258 -99 95 -146 112 -361 128
-52 4 -105 10 -119 13 -22 6 -22 8 -8 23 9 9 49 38 89 64 40 27 90 66 112 88
l39 39 21 -27 c27 -36 62 -71 290 -291 264 -254 264 -254 201 -409 -23 -58
-54 -125 -68 -148 -32 -54 -214 -267 -287 -334 -117 -109 -263 -192 -424 -243
-89 -28 -116 -31 -275 -37 -144 -5 -184 -10 -217 -25 -51 -24 -97 -86 -92
-125 5 -44 50 -50 237 -30 91 10 191 15 239 12 69 -4 93 -1 134 15 28 11 116
33 197 50 162 33 233 62 356 144 113 75 154 124 226 267 140 280 288 540 386
681 31 43 72 117 92 162 32 73 51 99 155 209 65 70 137 138 160 151 24 14 89
36 147 51 120 29 182 61 205 107 18 34 20 123 8 308 -6 90 -8 98 -31 110 -14
8 -43 14 -66 14 -37 0 -45 -6 -99 -65 -33 -36 -86 -103 -118 -150 -32 -47 -82
-111 -111 -144 -68 -76 -259 -236 -281 -236 -32 0 -60 61 -104 228 -13 52 -29
124 -35 160 -16 98 -12 590 7 733 8 64 18 203 23 308 5 116 13 197 20 204 32
32 125 -95 247 -337 47 -94 98 -186 113 -205 16 -20 38 -55 50 -78 32 -64 124
-168 248 -280 121 -110 143 -121 255 -130 100 -8 183 17 388 117 98 49 204 97
236 106 35 12 66 30 83 48 47 53 106 110 144 139 36 27 162 176 224 266 22 31
35 63 38 96 10 85 24 119 61 144 37 26 88 107 99 158 18 87 -50 199 -219 360
-118 113 -242 201 -380 270 -85 43 -607 225 -725 253 -31 7 -81 31 -117 56
-35 24 -93 58 -129 75 -135 66 -162 123 -152 319 6 124 37 225 93 301 41 56
60 69 103 69 16 0 32 4 35 9 4 5 38 22 78 37 44 18 90 46 122 74 74 67 220
167 308 214 122 63 230 62 293 -4 55 -58 35 -105 -74 -169 -71 -43 -75 -105
-10 -178 29 -34 29 -42 1 -75 -16 -19 -63 -23 -122 -12 -26 6 -31 10 -25 28
18 64 17 82 -9 113 -30 36 -55 43 -106 30 -51 -13 -90 -45 -110 -89 -27 -60
-16 -83 66 -148 62 -49 84 -61 145 -75 126 -28 189 -30 240 -8 63 29 121 83
172 161 88 131 118 280 98 478 -21 219 -52 266 -196 299 -93 22 -151 13 -217
-32 -28 -20 -74 -46 -102 -58 -218 -96 -277 -118 -393 -150 -152 -41 -247 -81
-318 -134 -27 -20 -85 -56 -127 -80 -91 -49 -128 -89 -128 -135 0 -20 -8 -40
-19 -50 -37 -33 -84 -149 -122 -303 -43 -171 -45 -197 -24 -298 19 -90 64
-181 112 -226 49 -45 273 -207 338 -244 28 -15 70 -40 95 -56 25 -15 70 -34
100 -42 30 -8 154 -60 275 -115 122 -55 250 -108 285 -117 119 -31 246 -111
300 -189 59 -87 82 -209 56 -300 -15 -52 -28 -68 -139 -177 -253 -248 -446
-332 -623 -270 -113 40 -289 202 -370 341 -20 36 -50 80 -67 99 -16 19 -48 64
-72 100 -54 85 -163 187 -298 280 -61 42 -115 87 -123 102 -11 22 -14 76 -14
244 0 194 -2 221 -21 273 -40 109 -43 135 -31 260 9 87 18 124 32 144 24 33
24 46 5 139 -19 90 -50 132 -122 166 -65 31 -75 45 -102 147 -26 94 -34 110
-89 178 -24 29 -67 89 -95 133 -62 95 -101 123 -156 109 -27 -7 -44 -20 -68
-57 -60 -89 -64 -166 -22 -412 14 -82 19 -147 16 -205 -4 -88 -4 -89 -97 -300
-23 -52 -48 -125 -56 -161 -16 -75 -55 -173 -138 -336 -85 -170 -131 -293
-210 -555 -17 -57 -32 -88 -41 -88 -8 0 -40 35 -71 78 -75 102 -254 278 -328
322 -69 41 -96 65 -96 84 0 18 132 129 180 153 55 26 147 42 248 43 60 0 106
5 130 16 74 30 126 101 162 218 17 54 33 80 79 130 70 76 105 143 96 186 -21
94 -167 160 -476 216 -94 17 -97 17 -176 -5 -89 -24 -126 -19 -138 18 -3 12
-12 21 -18 21 -7 0 -97 8 -202 17 -104 9 -258 17 -342 17 -101 1 -156 5 -164
13 -11 11 -2 96 18 167 13 47 79 99 203 160 69 34 170 87 225 118 93 53 184
88 227 88 36 0 17 -27 -44 -61 -57 -32 -63 -38 -61 -64 4 -45 28 -58 98 -52
92 7 190 51 253 113 46 47 52 58 52 94 0 22 -7 54 -15 70 -23 44 -21 69 10
147 27 71 28 73 12 115 -9 24 -26 49 -38 56 -35 22 -109 23 -184 3z m248
-1322 c31 -17 37 -28 37 -72 0 -77 -38 -115 -166 -163 -108 -40 -141 -64 -257
-183 -120 -124 -147 -137 -147 -71 0 21 9 108 19 192 11 84 23 183 26 221 7
67 7 67 39 67 17 0 65 -5 106 -11 66 -10 84 -9 150 9 85 23 161 27 193 11z
m877 -150 c4 -13 10 -160 14 -325 l7 -302 -73 -4 c-55 -3 -94 -13 -158 -40
-114 -48 -140 -54 -140 -30 0 11 8 30 19 43 10 13 22 35 26 49 4 14 32 79 62
144 30 66 68 156 84 200 42 112 132 296 143 293 6 -2 13 -14 16 -28z m33 -968
c50 -19 56 -63 61 -446 5 -388 10 -427 84 -740 23 -93 47 -204 55 -246 16 -79
81 -257 144 -390 42 -89 40 -108 -13 -162 -57 -57 -77 -51 -189 48 -117 105
-191 185 -262 285 -107 149 -184 188 -264 136 -66 -44 -75 -32 -36 49 19 39
42 102 51 142 18 73 51 123 81 123 18 0 19 20 5 72 -13 44 -67 93 -130 118
l-45 17 -11 74 c-7 41 -33 140 -58 220 -62 198 -77 269 -77 358 0 83 17 144
57 204 34 51 119 90 255 116 57 11 113 22 124 24 38 9 144 7 168 -2z m-699
-1350 c25 -22 17 -104 -18 -191 -42 -102 -65 -129 -213 -250 -139 -114 -187
-149 -197 -140 -13 14 23 120 86 250 56 117 71 157 75 205 8 103 8 103 67 120
124 36 164 37 200 6z m71 -861 c50 -11 98 -63 115 -125 21 -75 -9 -161 -69
-199 -35 -22 -242 -105 -329 -132 -23 -7 -94 -23 -157 -34 -103 -19 -117 -19
-149 -6 -28 12 -36 22 -42 51 -11 62 1 138 34 208 17 37 36 94 43 127 6 33 14
60 16 60 3 0 57 9 121 21 185 33 350 45 417 29z"/>
<path d="M5368 3429 c-69 -51 -7 -120 76 -85 30 12 36 20 36 45 0 56 -62 78
-112 40z"/>
<path d="M5550 3243 c-25 -32 -26 -65 -2 -86 24 -22 34 -21 66 4 28 22 36 69
14 86 -30 23 -58 21 -78 -4z"/>
<path d="M5395 3110 c-23 -26 -10 -55 25 -55 30 0 49 29 34 53 -16 25 -38 26
-59 2z"/>
<path d="M5681 3056 c-43 -46 -6 -102 40 -60 23 21 25 69 3 78 -21 8 -17 9
-43 -18z"/>
<path d="M5447 2964 c-4 -4 -7 -16 -7 -26 0 -14 6 -19 23 -16 14 2 22 10 22
23 0 20 -25 32 -38 19z"/>
<path d="M2091 2594 c-27 -34 -26 -50 0 -65 45 -24 101 38 69 76 -19 23 -46
18 -69 -11z"/>
<path d="M4814 2516 c-8 -21 3 -36 27 -36 15 0 20 6 17 22 -4 27 -35 37 -44
14z"/>
<path d="M2251 2454 c-38 -48 -22 -94 30 -94 62 0 89 32 65 79 -25 48 -64 54
-95 15z"/>
<path d="M4941 2430 c-52 -12 -53 -75 -1 -75 18 0 26 8 31 29 11 38 0 54 -30
46z"/>
<path d="M4746 2305 c-8 -22 1 -35 25 -35 15 0 20 6 17 22 -4 27 -33 36 -42
13z"/>
<path d="M5386 2187 c-23 -17 -13 -57 14 -57 19 0 30 19 30 51 0 22 -18 25
-44 6z"/>
<path d="M2190 2153 c-29 -37 -24 -83 12 -102 22 -13 30 -13 52 -2 41 22 63
112 30 125 -36 14 -73 6 -94 -21z"/>
<path d="M5544 1959 c-22 -24 -10 -52 25 -57 25 -4 44 33 29 61 -12 23 -31 22
-54 -4z"/>
<path d="M5361 1844 c-14 -32 -4 -47 30 -42 19 2 24 9 24 33 0 41 -36 47 -54
9z"/>
<path d="M792 1824 c-32 -85 -25 -114 27 -114 51 0 81 23 81 64 0 44 -18 65
-61 72 -32 6 -37 3 -47 -22z"/>
<path d="M5539 1816 c-15 -32 4 -106 35 -135 37 -34 70 -36 95 -5 11 15 21 35
21 46 0 40 -56 94 -117 113 -18 5 -25 1 -34 -19z"/>
<path d="M5294 1695 c-8 -20 4 -35 26 -35 25 0 35 17 20 35 -16 19 -39 19 -46
0z"/>
<path d="M5110 1625 c-29 -48 -24 -79 15 -83 25 -2 35 4 58 37 33 48 34 55 2
69 -40 18 -52 15 -75 -23z"/>
<path d="M601 1611 c-31 -25 -34 -32 -28 -66 9 -54 36 -79 76 -70 66 14 93 94
46 140 -31 32 -52 31 -94 -4z"/>
<path d="M822 1617 c-21 -22 -27 -43 -24 -79 2 -14 11 -18 40 -18 68 0 90 51
44 103 -20 23 -34 22 -60 -6z"/>
<path d="M1163 1548 c-42 -45 -53 -70 -53 -118 0 -130 206 -113 235 20 9 41
-13 80 -60 107 -56 32 -85 29 -122 -9z"/>
<path d="M787 1403 c-13 -22 -18 -73 -7 -73 19 0 47 19 54 36 11 28 -33 61
-47 37z"/>
</g>
</svg>
