<!-- Generated by IcoMoon.io -->
<svg version="1.1" xmlns="http://www.w3.org/2000/svg" width="32" height="32" viewBox="0 0 32 32">
<title>check-square</title>
<path d="M31.608 3.058c-0.517-0.517-1.367-0.517-1.883 0l-13.725 13.725-3.058-3.058c-0.517-0.517-1.367-0.517-1.883 0s-0.517 1.367 0 1.883l4 4c0.258 0.258 0.6 0.392 0.942 0.392s0.683-0.133 0.942-0.392l14.667-14.667c0.525-0.517 0.525-1.367 0-1.883z"></path>
<path d="M28 14.667c-0.733 0-1.333 0.6-1.333 1.333v9.333c0 0.733-0.6 1.333-1.333 1.333h-18.667c-0.733 0-1.333-0.6-1.333-1.333v-18.667c0-0.733 0.6-1.333 1.333-1.333h14.667c0.733 0 1.333-0.6 1.333-1.333s-0.6-1.333-1.333-1.333h-14.667c-2.208 0-4 1.792-4 4v18.667c0 2.208 1.792 4 4 4h18.667c2.208 0 4-1.792 4-4v-9.333c0-0.733-0.6-1.333-1.333-1.333z"></path>
</svg>
