<!-- Generated by IcoMoon.io -->
<svg version="1.1" xmlns="http://www.w3.org/2000/svg" width="32" height="32" viewBox="0 0 32 32">
<title>cog</title>
<path d="M27.1 20.5c0.142-0.3 0.45-0.5 0.775-0.5h0.117c2.208 0 4-1.792 4-4s-1.792-4-4-4h-0.225c-0.292 0-0.55-0.142-0.708-0.375-0.017-0.092-0.050-0.175-0.083-0.258-0.050-0.108-0.075-0.233-0.075-0.358 0-0.225 0.083-0.442 0.242-0.6l0.075-0.075c0.758-0.758 1.175-1.758 1.175-2.833s-0.417-2.075-1.175-2.825c-0.758-0.758-1.758-1.175-2.833-1.175-1.067 0-2.075 0.417-2.833 1.175l-0.075 0.075c-0.158 0.158-0.375 0.242-0.6 0.242-0.117 0-0.242-0.025-0.342-0.067-0.017-0.008-0.033-0.017-0.050-0.017-0.308-0.142-0.5-0.45-0.5-0.775v-0.133c0-2.208-1.792-4-4-4s-4 1.792-4 4v0.225c0 0.292-0.142 0.55-0.375 0.708-0.092 0.017-0.175 0.050-0.258 0.083-0.108 0.050-0.233 0.075-0.358 0.075-0.225 0-0.442-0.083-0.6-0.242l-0.075-0.075c-0.758-0.758-1.758-1.175-2.833-1.175s-2.075 0.417-2.825 1.175c-0.742 0.758-1.158 1.758-1.158 2.833s0.417 2.075 1.175 2.833l0.075 0.075c0.158 0.158 0.242 0.375 0.242 0.6 0 0.117-0.025 0.242-0.067 0.342-0.017 0.033-0.033 0.075-0.042 0.117-0.125 0.317-0.425 0.533-0.775 0.542h-0.108c-2.208 0-4 1.792-4 4s1.792 4 4 4h0.225c0.35 0 0.65 0.208 0.8 0.533 0 0.008 0.008 0.017 0.008 0.025 0.042 0.1 0.067 0.217 0.067 0.325 0 0.225-0.083 0.442-0.242 0.6l-0.075 0.075c-0.758 0.758-1.175 1.758-1.175 2.833s0.417 2.075 1.175 2.825c0.758 0.758 1.758 1.175 2.833 1.175s2.075-0.417 2.825-1.175l0.075-0.075c0.158-0.158 0.375-0.242 0.6-0.242 0.117 0 0.242 0.025 0.342 0.067 0.033 0.017 0.075 0.033 0.117 0.042 0.317 0.125 0.533 0.425 0.542 0.775v0.1c0 2.208 1.792 4 4 4s4-1.792 4-4v-0.225c0-0.35 0.208-0.65 0.533-0.8 0.008 0 0.017-0.008 0.025-0.008 0.1-0.042 0.217-0.067 0.325-0.067 0.225 0 0.442 0.083 0.6 0.242l0.075 0.075c0.758 0.758 1.758 1.175 2.833 1.175s2.075-0.417 2.825-1.175c0.758-0.758 1.175-1.758 1.175-2.833 0-1.067-0.417-2.075-1.175-2.825l-0.075-0.075c-0.158-0.158-0.242-0.375-0.242-0.6 0-0.117 0.025-0.242 0.067-0.342 0.008-0.008 0.017-0.025 0.017-0.042zM24.65 19.45c-0.008 0.017-0.008 0.025-0.017 0.042-0.192 0.433-0.292 0.917-0.292 1.4 0 0.933 0.358 1.808 1.008 2.475 0 0 0.008 0.008 0.008 0.008l0.083 0.083c0.25 0.25 0.392 0.583 0.392 0.942s-0.142 0.692-0.392 0.942c-0.25 0.25-0.583 0.392-0.942 0.392s-0.692-0.142-0.942-0.392l-0.083-0.083c0 0-0.008-0.008-0.008-0.008-0.667-0.65-1.542-1.008-2.475-1.008-0.508 0-0.992 0.108-1.45 0.308-0.008 0.008-0.025 0.008-0.033 0.017-1.258 0.575-2.067 1.825-2.075 3.208v0.225c0 0.733-0.6 1.333-1.333 1.333s-1.333-0.6-1.333-1.333v-0.117c0-0.008 0-0.025 0-0.033-0.033-1.45-0.933-2.708-2.283-3.225-0.425-0.183-0.9-0.283-1.383-0.283-0.933 0-1.808 0.358-2.475 1.008 0 0-0.008 0.008-0.008 0.008l-0.083 0.083c-0.25 0.25-0.583 0.392-0.942 0.392s-0.692-0.142-0.942-0.392c-0.25-0.25-0.392-0.583-0.392-0.942s0.142-0.692 0.392-0.942l0.092-0.092c0.65-0.667 1.008-1.542 1.008-2.475 0-0.5-0.108-0.992-0.308-1.45-0.008-0.008-0.008-0.025-0.017-0.033-0.575-1.258-1.825-2.067-3.208-2.067h-0.217c-0.733 0-1.333-0.6-1.333-1.333s0.6-1.333 1.333-1.333h0.117c0.008 0 0.025 0 0.033 0 1.45-0.033 2.708-0.933 3.225-2.283 0.183-0.425 0.283-0.9 0.283-1.383 0-0.933-0.358-1.808-1.008-2.475 0 0-0.008-0.008-0.008-0.008l-0.083-0.083c-0.25-0.25-0.392-0.583-0.392-0.942s0.142-0.692 0.392-0.942c0.25-0.25 0.583-0.392 0.942-0.392s0.692 0.142 0.942 0.392l0.083 0.083c0 0 0.008 0.008 0.008 0.008 0.667 0.65 1.542 1.008 2.475 1.008 0.4 0 0.8-0.067 1.175-0.2 0.125-0.017 0.242-0.050 0.358-0.1 1.292-0.567 2.125-1.833 2.133-3.233v-0.225c0-0.733 0.6-1.333 1.333-1.333s1.333 0.6 1.333 1.333v0.125c0.008 1.4 0.833 2.667 2.117 3.225 0.008 0.008 0.025 0.008 0.033 0.017 0.433 0.192 0.917 0.292 1.4 0.292 0.933 0 1.808-0.358 2.475-1.008 0 0 0.008-0.008 0.008-0.008l0.083-0.083c0.25-0.25 0.583-0.392 0.942-0.392s0.692 0.142 0.942 0.392c0.25 0.25 0.392 0.583 0.392 0.942s-0.142 0.692-0.392 0.942l-0.083 0.083c0 0-0.008 0.008-0.008 0.008-0.65 0.667-1.008 1.542-1.008 2.475 0 0.4 0.067 0.8 0.2 1.175 0.017 0.125 0.050 0.242 0.1 0.358 0.567 1.292 1.833 2.125 3.233 2.133h0.225c0.733 0 1.333 0.6 1.333 1.333s-0.6 1.333-1.333 1.333h-0.125c-1.4 0-2.667 0.825-3.225 2.108z"></path>
<path d="M16 10.667c-2.942 0-5.333 2.392-5.333 5.333s2.392 5.333 5.333 5.333c2.942 0 5.333-2.392 5.333-5.333s-2.392-5.333-5.333-5.333zM16 18.667c-1.467 0-2.667-1.2-2.667-2.667s1.2-2.667 2.667-2.667c1.467 0 2.667 1.2 2.667 2.667s-1.2 2.667-2.667 2.667z"></path>
</svg>
