<!-- Generated by IcoMoon.io -->
<svg version="1.1" xmlns="http://www.w3.org/2000/svg" width="32" height="32" viewBox="0 0 32 32">
<title>download</title>
<path d="M28 21.333c-0.733 0-1.333 0.6-1.333 1.333v4c0 0.733-0.6 1.333-1.333 1.333h-18.667c-0.733 0-1.333-0.6-1.333-1.333v-4c0-0.733-0.6-1.333-1.333-1.333s-1.333 0.6-1.333 1.333v4c0 2.208 1.792 4 4 4h18.667c2.208 0 4-1.792 4-4v-4c0-0.733-0.6-1.333-1.333-1.333z"></path>
<path d="M15.050 22.275c0.017 0.017 0.033 0.033 0.050 0.050 0 0 0 0 0 0s0.008 0.008 0.008 0.008c0 0 0 0 0.008 0.008 0 0 0 0 0.008 0.008 0 0 0.008 0.008 0.008 0.008s0 0 0 0 0.008 0.008 0.008 0.008c0 0 0 0 0 0 0.1 0.083 0.2 0.142 0.308 0.192 0 0 0 0 0.008 0 0 0 0 0 0.008 0 0.142 0.058 0.3 0.1 0.467 0.108 0 0 0 0 0 0 0.008 0 0.008 0 0.017 0 0 0 0 0 0 0s0.008 0 0.008 0c0 0 0.008 0 0.008 0s0.008 0 0.008 0 0.008 0 0.017 0 0.008 0 0.017 0c0 0 0.008 0 0.008 0s0.008 0 0.008 0c0 0 0.008 0 0.008 0s0 0 0 0c0.008 0 0.008 0 0.017 0 0 0 0 0 0 0 0.167-0.008 0.325-0.042 0.467-0.108 0 0 0 0 0 0s0.008 0 0.008 0c0 0 0.008 0 0.008 0s0 0 0 0c0.1-0.042 0.192-0.1 0.283-0.175 0 0 0 0 0 0s0.008-0.008 0.008-0.008c0 0 0 0 0 0s0.008-0.008 0.008-0.008c0 0 0 0 0.008-0.008 0 0 0 0 0.008-0.008 0 0 0.008-0.008 0.008-0.008s0 0 0 0c0.025-0.017 0.042-0.042 0.067-0.067l5.325-5.325c0.517-0.517 0.517-1.367 0-1.883s-1.367-0.517-1.883 0l-3.033 3.050v-15.45c0-0.733-0.6-1.333-1.333-1.333s-1.333 0.6-1.333 1.333v15.45l-3.058-3.058c-0.517-0.517-1.367-0.517-1.883 0s-0.517 1.367 0 1.883l5.325 5.333z"></path>
</svg>
