<!-- Generated by IcoMoon.io -->
<svg version="1.1" xmlns="http://www.w3.org/2000/svg" width="32" height="32" viewBox="0 0 32 32">
<title>edit</title>
<path d="M26.667 18.217c-0.733 0-1.333 0.6-1.333 1.333v7.117c0 0.733-0.6 1.333-1.333 1.333h-18.667c-0.733 0-1.333-0.6-1.333-1.333v-18.667c0-0.733 0.6-1.333 1.333-1.333h7.117c0.733 0 1.333-0.6 1.333-1.333s-0.6-1.333-1.333-1.333h-7.117c-2.208 0-4 1.792-4 4v18.667c0 2.208 1.792 4 4 4h18.667c2.208 0 4-1.792 4-4v-7.117c0-0.742-0.6-1.333-1.333-1.333z"></path>
<path d="M30.275 7.058l-5.333-5.333c-0.517-0.517-1.367-0.517-1.883 0l-13.333 13.333c-0.25 0.25-0.392 0.592-0.392 0.942v5.333c0 0.733 0.6 1.333 1.333 1.333h5.333c0.35 0 0.692-0.142 0.942-0.392l13.333-13.333c0.525-0.517 0.525-1.367 0-1.883zM15.45 20h-3.45v-3.45l12-12 3.45 3.45-12 12z"></path>
</svg>
