<!-- Generated by IcoMoon.io -->
<svg version="1.1" xmlns="http://www.w3.org/2000/svg" width="32" height="32" viewBox="0 0 32 32">
<title>eye-off</title>
<path d="M13.517 6.95c0.758-0.183 1.6-0.283 2.458-0.283h0.033c3.467 0 6.767 1.633 9.808 4.858 1.667 1.767 2.8 3.567 3.325 4.467-0.717 1.242-1.508 2.375-2.4 3.433-0.475 0.558-0.408 1.4 0.158 1.875 0.25 0.208 0.558 0.317 0.858 0.317 0.375 0 0.758-0.158 1.017-0.475 1.167-1.383 2.167-2.858 3.067-4.517 0.208-0.383 0.217-0.842 0.017-1.233-0.058-0.117-1.45-2.875-4.050-5.65-3.533-3.75-7.617-5.742-11.808-5.742h-0.033c-1.058 0-2.125 0.125-3.092 0.358-0.717 0.175-1.15 0.9-0.975 1.608 0.183 0.717 0.9 1.158 1.617 0.983z"></path>
<path d="M31.608 29.725l-6.733-6.733c-0.008-0.008-0.017-0.017-0.033-0.033l-22.567-22.567c-0.517-0.517-1.367-0.517-1.883 0s-0.517 1.367 0 1.883l5.7 5.7c-2.392 2.058-4.383 4.542-5.933 7.383-0.208 0.383-0.217 0.842-0.025 1.233 0.058 0.117 1.45 2.875 4.058 5.65 3.533 3.767 7.617 5.758 11.817 5.758 0.008 0 0.017 0 0.025 0 2.792-0.050 5.442-0.85 7.733-2.342l5.95 5.95c0.258 0.258 0.6 0.392 0.942 0.392s0.683-0.133 0.942-0.392c0.533-0.517 0.533-1.367 0.008-1.883zM13.367 15.258l3.375 3.375c-0.267 0.092-0.55 0.133-0.842 0.133-1.467 0-2.667-1.2-2.667-2.667 0-0.292 0.050-0.575 0.133-0.842zM16 25.333c-3.467 0-6.767-1.642-9.817-4.858-1.667-1.767-2.8-3.558-3.325-4.467 1.367-2.358 3.092-4.417 5.125-6.142l3.4 3.4c-0.525 0.842-0.817 1.825-0.817 2.833 0 2.942 2.392 5.333 5.333 5.333 1.008 0 1.992-0.292 2.833-0.817l3.1 3.1c-1.758 1.025-3.75 1.583-5.833 1.617z"></path>
</svg>
