<!-- Generated by IcoMoon.io -->
<svg version="1.1" xmlns="http://www.w3.org/2000/svg" width="32" height="32" viewBox="0 0 32 32">
<title>eye</title>
<path d="M31.858 15.4c-0.058-0.117-1.45-2.875-4.050-5.65-3.533-3.758-7.617-5.75-11.808-5.75s-8.275 1.992-11.808 5.758c-2.6 2.775-3.992 5.533-4.050 5.65-0.192 0.375-0.192 0.817 0 1.192 0.058 0.117 1.45 2.875 4.050 5.65 3.533 3.758 7.617 5.75 11.808 5.75s8.275-1.992 11.808-5.758c2.6-2.775 3.992-5.533 4.050-5.65 0.192-0.367 0.192-0.817 0-1.192zM25.817 20.475c-3.050 3.225-6.35 4.858-9.817 4.858s-6.767-1.633-9.817-4.858c-1.667-1.767-2.808-3.567-3.333-4.475 0.525-0.9 1.658-2.7 3.333-4.475 3.050-3.225 6.35-4.858 9.817-4.858s6.767 1.633 9.817 4.858c1.667 1.775 2.808 3.567 3.333 4.475-0.533 0.9-1.667 2.7-3.333 4.475z"></path>
<path d="M16 10.667c-2.942 0-5.333 2.392-5.333 5.333s2.392 5.333 5.333 5.333c2.942 0 5.333-2.392 5.333-5.333s-2.392-5.333-5.333-5.333zM16 18.667c-1.467 0-2.667-1.2-2.667-2.667s1.2-2.667 2.667-2.667c1.467 0 2.667 1.2 2.667 2.667s-1.2 2.667-2.667 2.667z"></path>
</svg>
