<?xml version="1.0" encoding="UTF-8" standalone="no"?>
<svg xmlns:rdf="http://www.w3.org/1999/02/22-rdf-syntax-ns#" xmlns="http://www.w3.org/2000/svg" viewBox="0 0 32 32" height="32" width="32" version="1.1" xmlns:cc="http://creativecommons.org/ns#" xmlns:dc="http://purl.org/dc/elements/1.1/">
 <metadata>
  <rdf:RDF>
   <cc:Work rdf:about="">
    <dc:format>image/svg+xml</dc:format>
    <dc:type rdf:resource="http://purl.org/dc/dcmitype/StillImage"/>
    <dc:title>info</dc:title>
   </cc:Work>
  </rdf:RDF>
 </metadata>
 <title>info</title>
 <g opacity=".5" display="none">
  <path d="m16 1.333c-8.083 0-14.67 6.583-14.67 14.67 0.003 8.08 6.586 14.67 14.67 14.67 8.08 0 14.67-6.59 14.67-14.67 0-8.084-6.59-14.67-14.67-14.67zm0 26.67c-6.617 0-12-5.38-12-12 0-6.617 5.383-12 12-12s12 5.383 12 12-5.383 12-12 12z"/>
  <path d="m16 14.67c-0.733 0-1.333 0.6-1.333 1.333v5.333c0 0.733 0.6 1.333 1.333 1.333s1.333-0.6 1.333-1.333v-5.33c0-0.733-0.6-1.333-1.333-1.333z"/>
  <path d="m16 9.333c-0.35 0-0.692 0.142-0.942 0.392s-0.392 0.592-0.392 0.942 0.142 0.692 0.392 0.942 0.592 0.392 0.942 0.392 0.692-0.142 0.942-0.392 0.392-0.592 0.392-0.942-0.142-0.692-0.392-0.942-0.59-0.392-0.94-0.392z"/>
  <path fill-opacity="0" d="m16 1.333c-8.276 0-14.98 6.707-14.98 14.98 0 6.619 4.291 12.23 10.24 14.21 0.749 0.141 1.024-0.322 1.024-0.721 0-0.356-0.013-1.298-0.019-2.546-4.16 0.91-5.038-2-5.038-2-0.682-1.73-1.666-2.19-1.666-2.19-1.357-0.929 0.105-0.91 0.105-0.91 1.503 0.105 2.294 1.543 2.294 1.543 1.337 2.29 3.507 1.629 4.363 1.245 0.135-0.968 0.521-1.629 0.949-2.003-3.33-0.38-6.826-1.67-6.826-7.41 0-1.635 0.58-2.971 1.541-4.02-0.168-0.378-0.674-1.9 0.131-3.964 0 0 1.254-0.403 4.119 1.535 1.198-0.333 2.471-0.498 3.745-0.506 1.273 0.008 2.546 0.172 3.745 0.506 2.846-1.938 4.1-1.535 4.1-1.535 0.805 2.063 0.3 3.585 0.15 3.964 0.955 1.049 1.535 2.385 1.535 4.02 0 5.754-3.501 7.021-6.834 7.39 0.524 0.449 1.011 1.367 1.011 2.771 0 2.003-0.019 3.614-0.019 4.1 0 0.393 0.262 0.861 1.03 0.712 5.993-1.964 10.28-7.581 10.28-14.19 0.01-8.269-6.7-14.98-14.97-14.98z"/>
 </g>
 <path style="color-rendering:auto;text-decoration-color:#000000;color:#000000;font-variant-numeric:normal;shape-rendering:auto;font-variant-ligatures:normal;text-decoration-line:none;font-variant-position:normal;mix-blend-mode:normal;solid-color:#000000;font-feature-settings:normal;shape-padding:0;font-variant-alternates:normal;text-indent:0;dominant-baseline:auto;font-variant-caps:normal;image-rendering:auto;white-space:normal;text-decoration-style:solid;text-orientation:mixed;isolation:auto;text-transform:none" d="m4.256 2.451c-0.372 0.017-0.729 0.115-0.729 0.115l-0.629 0.204-0.24 0.615c-1.168 2.996-0.752 5.113-0.361 6.326-1.374 1.749-2.297 3.889-2.297 6.419 0 4.678 1.491 7.913 3.795 9.885s5.231 2.647 7.951 2.844c2.828 0.2042 5.674 0.1869 8.492-0.01758 2.72-0.1973 5.648-0.8578 7.957-2.822 2.3-1.97 3.8-5.2 3.8-9.89 0-2.53-0.92-4.67-2.29-6.421 0.35-1.146 0.79-3.31-0.39-6.324l-0.24-0.615-0.63-0.204s-0.3574-0.09806-0.7285-0.1152c-0.37-0.017-0.86 0.011-1.49 0.143-1.14 0.241-2.75 0.911-4.78 2.22-1.77-0.433-3.6-0.724-5.44-0.736h-0.0176c-1.84 0.012-3.66 0.303-5.43 0.736-2.046-1.31-3.666-1.979-4.812-2.22-0.622-0.131-1.121-0.16-1.492-0.143zm0.8398 2.852c0.03812 0.00708 0.03891-0.0008605 0.08008 0.00781 0.814 0.1715 2.23 0.6745 4.311 2.082l0.5312 0.3594 0.6191-0.1719c1.703-0.4733 3.532-0.7103 5.367-0.7227 1.835 0.01219 3.664 0.2481 5.367 0.7227l0.623 0.1719 0.5312-0.3633c2.066-1.407 3.476-1.907 4.285-2.078 0.04024-0.00851 0.04081-0.0008424 0.07813-0.00781 0.5627 2.189 0.2119 3.812 0.07813 4.15l-0.3184 0.8066 0.584 0.6406c1.257 1.381 1.99 3.049 1.99 5.227 0 4.129-1.179 6.372-2.826 7.773s-3.953 1.993-6.359 2.168c-2.694 0.1955-5.406 0.2114-8.09 0.01758-2.401-0.18-4.703-0.78-6.348-2.19-1.646-1.41-2.825-3.66-2.825-7.77 0-2.178 0.7318-3.845 1.996-5.225l0.616-0.67-0.369-0.83c-0.101-0.226-0.481-1.891 0.076-4.097z"/>
</svg>
