<!-- Generated by IcoMoon.io -->
<svg version="1.1" xmlns="http://www.w3.org/2000/svg" width="32" height="32" viewBox="0 0 32 32">
<title>globe</title>
<path d="M30.667 16c0-8.008-6.458-14.542-14.442-14.667-0.142-0.025-0.283-0.025-0.425 0-7.992 0.108-14.467 6.642-14.467 14.667 0 8.008 6.458 14.542 14.442 14.667 0.067 0.008 0.142 0.017 0.208 0.017v0c0.067 0 0.142-0.008 0.208-0.017 8-0.108 14.475-6.642 14.475-14.667zM27.925 14.667h-5.325c-0.3-3.683-1.525-7.225-3.558-10.275 4.733 1.242 8.333 5.3 8.883 10.275zM15.992 27.275c-2.225-2.875-3.583-6.325-3.917-9.942h7.842c-0.333 3.633-1.7 7.083-3.925 9.942zM12.083 14.667c0.342-3.625 1.7-7.075 3.925-9.933 2.225 2.867 3.592 6.308 3.925 9.933h-7.85zM12.967 4.392c-2.033 3.050-3.258 6.592-3.567 10.275h-5.325c0.55-4.975 4.158-9.042 8.892-10.275zM4.075 17.333h5.325c0.3 3.675 1.525 7.208 3.55 10.275-4.725-1.242-8.325-5.308-8.875-10.275zM19.033 27.608c2.033-3.050 3.258-6.592 3.567-10.275h5.325c-0.55 4.975-4.158 9.042-8.892 10.275z"></path>
</svg>
