<!-- Generated by IcoMoon.io -->
<svg version="1.1" xmlns="http://www.w3.org/2000/svg" width="32" height="32" viewBox="0 0 32 32">
<title>grid</title>
<path d="M12 2.667h-6.667c-1.467 0-2.667 1.2-2.667 2.667v6.667c0 1.467 1.2 2.667 2.667 2.667h6.667c1.467 0 2.667-1.2 2.667-2.667v-6.667c0-1.467-1.2-2.667-2.667-2.667zM12 12h-6.667v-6.667c0 0 0 0 0 0h6.667v6.667z"></path>
<path d="M26.667 2.667h-6.667c-1.467 0-2.667 1.2-2.667 2.667v6.667c0 1.467 1.2 2.667 2.667 2.667h6.667c1.467 0 2.667-1.2 2.667-2.667v-6.667c0-1.467-1.2-2.667-2.667-2.667zM26.667 12h-6.667v-6.667c0 0 0 0 0 0h6.667v6.667z"></path>
<path d="M26.667 17.333h-6.667c-1.467 0-2.667 1.2-2.667 2.667v6.667c0 1.467 1.2 2.667 2.667 2.667h6.667c1.467 0 2.667-1.2 2.667-2.667v-6.667c0-1.467-1.2-2.667-2.667-2.667zM26.667 26.667h-6.667v-6.667c0 0 0 0 0 0h6.667v6.667z"></path>
<path d="M12 17.333h-6.667c-1.467 0-2.667 1.2-2.667 2.667v6.667c0 1.467 1.2 2.667 2.667 2.667h6.667c1.467 0 2.667-1.2 2.667-2.667v-6.667c0-1.467-1.2-2.667-2.667-2.667zM12 26.667h-6.667v-6.667c0 0 0 0 0 0h6.667v6.667z"></path>
</svg>
