<!-- Generated by IcoMoon.io -->
<svg version="1.1" xmlns="http://www.w3.org/2000/svg" width="32" height="32" viewBox="0 0 32 32">
<title>info</title>
<path d="M16 1.333c-8.083 0-14.667 6.583-14.667 14.667s6.583 14.667 14.667 14.667 14.667-6.583 14.667-14.667-6.583-14.667-14.667-14.667zM16 28c-6.617 0-12-5.383-12-12s5.383-12 12-12c6.617 0 12 5.383 12 12s-5.383 12-12 12z"></path>
<path d="M16 14.667c-0.733 0-1.333 0.6-1.333 1.333v5.333c0 0.733 0.6 1.333 1.333 1.333s1.333-0.6 1.333-1.333v-5.333c0-0.733-0.6-1.333-1.333-1.333z"></path>
<path d="M16 9.333c-0.35 0-0.692 0.142-0.942 0.392s-0.392 0.592-0.392 0.942 0.142 0.692 0.392 0.942c0.25 0.25 0.592 0.392 0.942 0.392s0.692-0.142 0.942-0.392c0.25-0.25 0.392-0.592 0.392-0.942s-0.142-0.692-0.392-0.942c-0.25-0.25-0.592-0.392-0.942-0.392z"></path>
</svg>
