<!-- Generated by IcoMoon.io -->
<svg version="1.1" xmlns="http://www.w3.org/2000/svg" width="32" height="32" viewBox="0 0 32 32">
<title>layers</title>
<path d="M2.067 10.525l13.333 6.667c0.192 0.092 0.392 0.142 0.6 0.142s0.408-0.050 0.6-0.142l13.333-6.667c0.45-0.225 0.733-0.692 0.733-1.192s-0.283-0.967-0.733-1.192l-13.333-6.667c-0.375-0.192-0.817-0.192-1.192 0l-13.333 6.667c-0.45 0.225-0.733 0.692-0.733 1.192s0.275 0.967 0.725 1.192zM16 4.158l10.35 5.175-10.35 5.175-10.35-5.175 10.35-5.175z"></path>
<path d="M28.733 21.475l-12.733 6.367-12.733-6.367c-0.658-0.333-1.458-0.058-1.792 0.6s-0.058 1.458 0.6 1.792l13.333 6.667c0.192 0.092 0.392 0.142 0.6 0.142s0.408-0.050 0.6-0.142l13.333-6.667c0.658-0.333 0.925-1.133 0.6-1.792-0.342-0.667-1.142-0.933-1.808-0.6z"></path>
<path d="M2.067 17.192l13.333 6.667c0.192 0.092 0.392 0.142 0.6 0.142s0.408-0.050 0.6-0.142l13.333-6.667c0.658-0.333 0.925-1.133 0.6-1.792-0.333-0.658-1.133-0.925-1.792-0.6l-12.742 6.375-12.733-6.367c-0.658-0.333-1.458-0.058-1.792 0.6-0.333 0.65-0.067 1.458 0.592 1.783z"></path>
</svg>
