<!-- Generated by IcoMoon.io -->
<svg version="1.1" xmlns="http://www.w3.org/2000/svg" width="32" height="32" viewBox="0 0 32 32">
<title>moon</title>
<path d="M29.1 16.25c-0.433-0.592-1.258-0.725-1.85-0.3l-0.025 0.017c-0.017 0.008-0.033 0.025-0.050 0.033-1.375 1.008-3.008 1.542-4.725 1.542-4.408 0-8-3.592-8-8 0-1.7 0.542-3.392 1.533-4.767 0.308-0.425 0.333-0.992 0.075-1.442s-0.758-0.708-1.283-0.658c-3.283 0.317-6.325 1.833-8.567 4.275-2.25 2.458-3.492 5.658-3.492 8.992 0 7.35 5.983 13.333 13.333 13.333 3.342 0 6.533-1.242 9-3.5 2.383-2.192 3.892-5.15 4.258-8.367 0.108-0.375 0.050-0.808-0.208-1.158zM23.242 23.817c-1.967 1.8-4.525 2.8-7.192 2.8-5.883 0-10.667-4.783-10.667-10.667 0-2.667 0.992-5.225 2.792-7.192 1.175-1.283 2.633-2.25 4.242-2.833-0.408 1.167-0.625 2.4-0.625 3.633 0 5.883 4.783 10.667 10.667 10.667 1.25 0 2.475-0.217 3.625-0.625-0.592 1.592-1.558 3.042-2.842 4.217z"></path>
</svg>
