<!-- Generated by IcoMoon.io -->
<svg version="1.1" xmlns="http://www.w3.org/2000/svg" width="32" height="32" viewBox="0 0 32 32">
<title>more-horizontal</title>
<path d="M16 12c-2.208 0-4 1.792-4 4s1.792 4 4 4c2.208 0 4-1.792 4-4s-1.792-4-4-4zM16 17.333c-0.733 0-1.333-0.6-1.333-1.333s0.6-1.333 1.333-1.333 1.333 0.6 1.333 1.333-0.6 1.333-1.333 1.333z"></path>
<path d="M26.667 12c-2.208 0-4 1.792-4 4s1.792 4 4 4 4-1.792 4-4c0-2.208-1.792-4-4-4zM26.667 17.333c-0.733 0-1.333-0.6-1.333-1.333s0.6-1.333 1.333-1.333 1.333 0.6 1.333 1.333-0.6 1.333-1.333 1.333z"></path>
<path d="M5.333 12c-2.208 0-4 1.792-4 4s1.792 4 4 4 4-1.792 4-4c0-2.208-1.792-4-4-4zM5.333 17.333c-0.733 0-1.333-0.6-1.333-1.333s0.6-1.333 1.333-1.333 1.333 0.6 1.333 1.333-0.6 1.333-1.333 1.333z"></path>
</svg>
