<!-- Generated by IcoMoon.io -->
<svg version="1.1" xmlns="http://www.w3.org/2000/svg" width="32" height="32" viewBox="0 0 32 32">
<title>plus-square</title>
<path d="M25.333 2.667h-18.667c-2.208 0-4 1.792-4 4v18.667c0 2.208 1.792 4 4 4h18.667c2.208 0 4-1.792 4-4v-18.667c0-2.208-1.792-4-4-4zM26.667 25.333c0 0.733-0.6 1.333-1.333 1.333h-18.667c-0.733 0-1.333-0.6-1.333-1.333v-18.667c0-0.733 0.6-1.333 1.333-1.333h18.667c0.733 0 1.333 0.6 1.333 1.333v18.667z"></path>
<path d="M21.333 14.667h-4v-4c0-0.733-0.6-1.333-1.333-1.333s-1.333 0.6-1.333 1.333v4h-4c-0.733 0-1.333 0.6-1.333 1.333s0.6 1.333 1.333 1.333h4v4c0 0.733 0.6 1.333 1.333 1.333s1.333-0.6 1.333-1.333v-4h4c0.733 0 1.333-0.6 1.333-1.333s-0.6-1.333-1.333-1.333z"></path>
</svg>
