<!-- Generated by IcoMoon.io -->
<svg version="1.1" xmlns="http://www.w3.org/2000/svg" width="32" height="32" viewBox="0 0 32 32">
<title>rotate-ccw</title>
<path d="M16 2.675c-3.55 0-6.892 1.375-9.408 3.883l-3.925 3.692v-4.917c0-0.733-0.6-1.333-1.333-1.333s-1.333 0.6-1.333 1.333v8c0 0 0 0 0 0s0 0.008 0 0.008c0 0 0 0.008 0 0.008s0 0.008 0 0.008c0 0 0 0.008 0 0.008s0 0.008 0 0.008c0 0 0 0.008 0 0.008s0 0 0 0.008c0 0 0 0.008 0 0.008v0c0.008 0.133 0.033 0.267 0.083 0.392v0c0 0.008 0 0.008 0.008 0.017 0 0 0 0 0 0.008 0 0 0 0.008 0 0.008s0 0.008 0 0.008c0 0 0 0 0 0.008s0 0.008 0.008 0.017c0 0 0 0 0 0 0.050 0.125 0.125 0.242 0.217 0.35 0 0 0 0 0 0s0.008 0.008 0.008 0.008c0 0 0 0 0 0s0.008 0.008 0.008 0.008c0 0 0 0 0 0s0.008 0.008 0.008 0.008c0 0 0 0 0 0s0 0 0 0 0 0 0.008 0.008c0 0 0 0 0 0s0.008 0.008 0.008 0.008c0 0 0 0 0 0 0.125 0.133 0.275 0.233 0.433 0.3 0 0 0 0 0 0s0.008 0 0.008 0.008c0 0 0.008 0 0.008 0s0 0 0.008 0 0.008 0 0.017 0.008c0 0 0 0 0 0 0.125 0.050 0.267 0.083 0.408 0.083v0c0.008 0 0.008 0 0.017 0 0 0 0 0 0.008 0 0 0 0.008 0 0.008 0s0.008 0 0.008 0c0 0 0.008 0 0.008 0s0.008 0 0.008 0c0 0 0 0 0.008 0 0 0 0.008 0 0.008 0s0 0 0 0h8c0.733 0 1.333-0.6 1.333-1.333s-0.6-1.333-1.333-1.333h-4.617l3.733-3.508c0.008-0.008 0.017-0.017 0.025-0.025 2.017-2.008 4.692-3.117 7.533-3.117 5.883 0 10.667 4.783 10.667 10.667s-4.783 10.667-10.667 10.667c-2.242 0-4.383-0.692-6.192-1.992-1.783-1.283-3.117-3.058-3.867-5.142-0.25-0.692-1.017-1.050-1.708-0.8s-1.050 1.017-0.8 1.708c0.933 2.592 2.6 4.808 4.825 6.4 2.267 1.633 4.95 2.492 7.75 2.492 7.35 0 13.333-5.983 13.333-13.333s-5.983-13.325-13.333-13.325z"></path>
</svg>
