<!-- Generated by IcoMoon.io -->
<svg version="1.1" xmlns="http://www.w3.org/2000/svg" width="32" height="32" viewBox="0 0 32 32">
<title>shuffle</title>
<path d="M26.667 10.667c0 0.733 0.6 1.333 1.333 1.333s1.333-0.6 1.333-1.333v-6.667c0-0.017 0-0.033 0-0.050 0 0 0 0 0-0.008 0 0 0-0.008 0-0.008s0-0.008 0-0.008c0 0 0-0.008 0-0.008s0-0.008 0-0.008c0 0 0 0 0 0-0.008-0.142-0.042-0.275-0.092-0.4 0 0 0 0 0-0.008 0 0 0 0 0-0.008 0 0 0-0.008-0.008-0.008 0 0 0 0 0 0-0.050-0.125-0.125-0.233-0.208-0.342 0 0 0 0 0 0s-0.008-0.008-0.008-0.008c0 0 0 0 0 0s-0.008-0.008-0.008-0.008-0.008-0.008-0.008-0.008 0 0 0-0.008c-0.033-0.033-0.058-0.067-0.092-0.092 0 0 0 0-0.008 0 0 0-0.008-0.008-0.008-0.008s-0.008 0-0.008-0.008c0 0 0 0-0.008 0 0 0-0.008-0.008-0.008-0.008s0 0 0 0c-0.1-0.092-0.217-0.158-0.342-0.208 0 0 0 0 0 0s-0.008 0-0.008 0c0 0 0 0-0.008 0 0 0 0 0-0.008 0-0.125-0.050-0.258-0.083-0.4-0.092 0 0 0 0 0 0s-0.008 0-0.008 0c0 0-0.008 0-0.008 0s-0.008 0-0.008 0c0 0-0.008 0-0.008 0s0 0-0.008 0c-0.017 0-0.033 0-0.050 0h-6.667c-0.733 0-1.333 0.6-1.333 1.333s0.6 1.333 1.333 1.333h3.45l-20.4 20.367c-0.517 0.517-0.517 1.367 0 1.883 0.258 0.258 0.6 0.392 0.942 0.392s0.683-0.133 0.942-0.392l20.392-20.392v3.45z"></path>
<path d="M29 28.883c0 0 0-0.008 0 0 0.008-0.008 0.008-0.008 0.008-0.008s0.008-0.008 0.008-0.008c0 0 0 0 0 0s0.008-0.008 0.008-0.008c0 0 0 0 0 0 0.083-0.1 0.15-0.208 0.2-0.325 0 0 0 0 0-0.008 0 0 0-0.008 0-0.008s0-0.008 0-0.008c0 0 0 0 0 0 0.050-0.125 0.083-0.258 0.092-0.4 0 0 0 0 0 0s0-0.008 0-0.008c0 0 0-0.008 0-0.008s0-0.008 0-0.008c0 0 0-0.008 0-0.008s0 0 0-0.008c0-0.017 0-0.033 0-0.050v-6.667c0-0.733-0.6-1.333-1.333-1.333s-1.333 0.6-1.333 1.333v3.45l-5.933-5.967c-0.517-0.517-1.367-0.517-1.883 0s-0.517 1.367 0 1.883l5.95 5.95h-3.45c-0.733 0-1.333 0.6-1.333 1.333s0.6 1.333 1.333 1.333h6.667c0.008 0 0.008 0 0.017 0 0 0 0.008 0 0.008 0s0.008 0 0.008 0c0 0 0.008 0 0.008 0s0 0 0 0c0.008 0 0.008 0 0.017 0 0 0 0 0 0 0 0.167-0.008 0.325-0.042 0.467-0.108 0 0 0 0 0 0s0.008 0 0.008 0c0 0 0.008 0 0.008 0s0 0 0 0c0.1-0.042 0.192-0.1 0.283-0.175 0 0 0 0 0 0s0.008-0.008 0.008-0.008c0 0 0 0 0 0s0.008-0.008 0.008-0.008c0 0 0 0 0.008-0.008 0 0 0 0 0.008-0.008 0 0 0.008-0.008 0.008-0.008s0 0 0 0c0.042-0.033 0.075-0.067 0.108-0.108 0 0 0 0 0 0 0.017-0.008 0.025-0.017 0.025-0.017z"></path>
<path d="M11.283 13.167c0.258 0.258 0.6 0.392 0.942 0.392s0.683-0.133 0.942-0.392c0.517-0.517 0.517-1.367 0-1.883l-6.892-6.892c-0.517-0.517-1.367-0.517-1.883 0s-0.517 1.367 0 1.883l6.892 6.892z"></path>
</svg>
