<!-- Generated by IcoMoon.io -->
<svg version="1.1" xmlns="http://www.w3.org/2000/svg" width="32" height="32" viewBox="0 0 32 32">
<title>trash</title>
<path d="M28 6.667h-5.333v-1.333c0-2.208-1.792-4-4-4h-5.333c-2.208 0-4 1.792-4 4v1.333h-5.333c-0.733 0-1.333 0.6-1.333 1.333s0.6 1.333 1.333 1.333h1.333v17.333c0 2.208 1.792 4 4 4h13.333c2.208 0 4-1.792 4-4v-17.333h1.333c0.733 0 1.333-0.6 1.333-1.333s-0.6-1.333-1.333-1.333zM12 5.333c0-0.733 0.6-1.333 1.333-1.333h5.333c0.733 0 1.333 0.6 1.333 1.333v1.333h-8v-1.333zM24 26.667c0 0.733-0.6 1.333-1.333 1.333h-13.333c-0.733 0-1.333-0.6-1.333-1.333v-17.333h16v17.333z"></path>
<path d="M13.333 13.333c-0.733 0-1.333 0.6-1.333 1.333v8c0 0.733 0.6 1.333 1.333 1.333s1.333-0.6 1.333-1.333v-8c0-0.733-0.6-1.333-1.333-1.333z"></path>
<path d="M18.667 13.333c-0.733 0-1.333 0.6-1.333 1.333v8c0 0.733 0.6 1.333 1.333 1.333s1.333-0.6 1.333-1.333v-8c0-0.733-0.6-1.333-1.333-1.333z"></path>
</svg>
