<!-- Generated by IcoMoon.io -->
<svg version="1.1" xmlns="http://www.w3.org/2000/svg" width="32" height="32" viewBox="0 0 32 32">
<title>upload</title>
<path d="M28 21.333c-0.733 0-1.333 0.6-1.333 1.333v4c0 0.733-0.6 1.333-1.333 1.333h-18.667c-0.733 0-1.333-0.6-1.333-1.333v-4c0-0.733-0.6-1.333-1.333-1.333s-1.333 0.6-1.333 1.333v4c0 2.208 1.792 4 4 4h18.667c2.208 0 4-1.792 4-4v-4c0-0.733-0.6-1.333-1.333-1.333z"></path>
<path d="M11.608 8.942l3.058-3.058v15.45c0 0.733 0.6 1.333 1.333 1.333s1.333-0.6 1.333-1.333v-15.45l3.058 3.058c0.258 0.258 0.6 0.392 0.942 0.392s0.683-0.133 0.942-0.392c0.517-0.517 0.517-1.367 0-1.883l-5.333-5.333c-0.017-0.017-0.033-0.033-0.050-0.050 0 0 0 0-0.008 0 0 0-0.008-0.008-0.008-0.008s-0.008 0-0.008-0.008c0 0 0 0-0.008 0 0 0-0.008-0.008-0.008-0.008s0 0 0 0c-0.1-0.092-0.217-0.158-0.342-0.208 0 0 0 0 0 0s-0.008 0-0.008 0c0 0 0 0-0.008 0 0 0 0 0-0.008 0-0.125-0.050-0.258-0.083-0.4-0.092 0 0 0 0 0 0s-0.008 0-0.008 0c0 0-0.008 0-0.008 0s-0.008 0-0.008 0c0 0-0.008 0-0.008 0s0 0-0.008 0c-0.033 0-0.067 0-0.1 0 0 0 0 0-0.008 0 0 0-0.008 0-0.008 0s-0.008 0-0.008 0c0 0-0.008 0-0.008 0s-0.008 0-0.008 0c0 0 0 0 0 0-0.133 0.008-0.267 0.042-0.392 0.092 0 0 0 0 0 0s-0.008 0-0.008 0c0 0-0.008 0-0.008 0s0 0 0 0c-0.133 0.050-0.25 0.125-0.367 0.225 0 0 0 0 0 0s-0.008 0.008-0.008 0.008c0 0 0 0 0 0s-0.008 0.008-0.008 0.008c0 0-0.008 0.008-0.008 0.008s0 0 0 0c-0.017 0.008-0.025 0.025-0.042 0.042l-5.333 5.333c-0.517 0.517-0.517 1.367 0 1.883s1.367 0.517 1.883-0.008z"></path>
</svg>
