<!-- Generated by IcoMoon.io -->
<svg version="1.1" xmlns="http://www.w3.org/2000/svg" width="32" height="32" viewBox="0 0 32 32">
<title>x</title>
<path d="M17.883 16l7.058-7.058c0.517-0.517 0.517-1.367 0-1.883s-1.367-0.517-1.883 0l-7.058 7.058-7.058-7.058c-0.517-0.517-1.367-0.517-1.883 0s-0.517 1.367 0 1.883l7.058 7.058-7.058 7.058c-0.517 0.517-0.517 1.367 0 1.883 0.258 0.258 0.6 0.392 0.942 0.392s0.683-0.133 0.942-0.392l7.058-7.058 7.058 7.058c0.258 0.258 0.6 0.392 0.942 0.392s0.683-0.133 0.942-0.392c0.517-0.517 0.517-1.367 0-1.883l-7.058-7.058z"></path>
</svg>
