<!-- Generated by IcoMoon.io -->
<svg version="1.1" xmlns="http://www.w3.org/2000/svg" width="32" height="32" viewBox="0 0 32 32">
<title>zap</title>
<path d="M29.208 12.767c-0.217-0.467-0.692-0.767-1.208-0.767h-10.492l1.15-9.167c0.075-0.583-0.25-1.15-0.792-1.392-0.542-0.233-1.175-0.083-1.558 0.367l-13.333 16c-0.333 0.4-0.4 0.95-0.183 1.417s0.692 0.775 1.208 0.775h10.492l-1.15 9.167c-0.075 0.583 0.25 1.15 0.792 1.392 0.175 0.075 0.35 0.108 0.533 0.108 0.383 0 0.767-0.167 1.025-0.483l13.333-16c0.333-0.392 0.4-0.95 0.183-1.417zM16.55 24.983l0.767-6.15c0.050-0.383-0.067-0.758-0.325-1.050s-0.617-0.45-1-0.45h-9.142l8.6-10.317-0.767 6.15c-0.050 0.383 0.067 0.758 0.325 1.050 0.25 0.283 0.617 0.45 1 0.45h9.15l-8.608 10.317z"></path>
</svg>
